<svg xmlns="http://www.w3.org/2000/svg" width="1440" height="900" viewBox="0 0 1440 900">
  
  <style>
    .bg { fill: #0b0f1c; }
    .panel { fill: #121a2b; stroke: #1f2a44; stroke-width: 1; }
    .card { fill: #141f35; stroke: #223457; stroke-width: 1; }
    .soft { fill: #18243f; }
    .accent { fill: #4f7cff; }
    .accent-2 { fill: #6ee7f9; }
    .text { fill: #e6eefc; font-family: 'Inter', 'Segoe UI', sans-serif; }
    .muted { fill: #9bb0d3; font-family: 'Inter', 'Segoe UI', sans-serif; }
    .pill { fill: #23365b; }
    .border { stroke: #273455; stroke-width: 1; }
  </style>

  <rect class="bg" width="1440" height="900" />
  <rect class="panel" x="60" y="40" width="1320" height="80" rx="18" />
  <rect class="pill" x="90" y="65" width="140" height="30" rx="15" />
  <text class="text" x="110" y="86" font-size="14" letter-spacing="1">STARTUP NETWORK</text>
  <text class="muted" x="560" y="86" font-size="14">Product</text>
  <text class="muted" x="640" y="86" font-size="14">Investors</text>
  <text class="muted" x="735" y="86" font-size="14">Community</text>
  <rect class="accent" x="1180" y="58" width="160" height="44" rx="20" />
  <text class="text" x="1224" y="86" font-size="14">Get Started</text>

  <rect class="card" x="60" y="150" width="1320" height="680" rx="28" />
  <text class="text" x="120" y="240" font-size="52">Launch your startup with</text>
  <text class="text" x="120" y="300" font-size="52">founder-grade clarity</text>
  <text class="muted" x="120" y="350" font-size="18">Plan, ship, and fundraise from a unified cockpit with real-time metrics.</text>

  <rect class="accent" x="120" y="390" width="190" height="50" rx="25" />
  <text class="text" x="155" y="422" font-size="16">Create workspace</text>
  <rect class="soft" x="330" y="390" width="170" height="50" rx="25" />
  <text class="text" x="365" y="422" font-size="16">See tour</text>

  <rect class="panel" x="120" y="470" width="500" height="290" rx="24" />
  <rect class="accent-2" x="150" y="500" width="120" height="8" rx="4" />
  <rect class="soft" x="150" y="525" width="300" height="8" rx="4" />
  <rect class="soft" x="150" y="545" width="220" height="8" rx="4" />
  <rect class="soft" x="150" y="590" width="420" height="120" rx="16" />

  <rect class="panel" x="660" y="470" width="600" height="290" rx="24" />
  <rect class="accent" x="690" y="500" width="220" height="12" rx="6" />
  <rect class="soft" x="690" y="540" width="500" height="14" rx="7" />
  <rect class="soft" x="690" y="570" width="420" height="14" rx="7" />
  <rect class="soft" x="690" y="610" width="480" height="110" rx="18" />
</svg>