<svg xmlns="http://www.w3.org/2000/svg" width="1440" height="900" viewBox="0 0 1440 900">
  
  <style>
    .bg { fill: #0b0f1c; }
    .panel { fill: #121a2b; stroke: #1f2a44; stroke-width: 1; }
    .card { fill: #141f35; stroke: #223457; stroke-width: 1; }
    .soft { fill: #18243f; }
    .accent { fill: #4f7cff; }
    .accent-2 { fill: #6ee7f9; }
    .text { fill: #e6eefc; font-family: 'Inter', 'Segoe UI', sans-serif; }
    .muted { fill: #9bb0d3; font-family: 'Inter', 'Segoe UI', sans-serif; }
    .pill { fill: #23365b; }
    .border { stroke: #273455; stroke-width: 1; }
  </style>

  <rect class="bg" width="1440" height="900" />
  <rect class="panel" x="60" y="50" width="1320" height="800" rx="26" />
  <text class="text" x="120" y="120" font-size="28">UI System</text>
  <rect class="card" x="120" y="160" width="560" height="280" rx="24" />
  <rect class="card" x="740" y="160" width="560" height="280" rx="24" />
  <rect class="card" x="120" y="470" width="560" height="300" rx="24" />
  <rect class="card" x="740" y="470" width="560" height="300" rx="24" />
  <rect class="accent" x="160" y="210" width="180" height="38" rx="19" />
  <rect class="soft" x="160" y="270" width="420" height="12" rx="6" />
  <rect class="soft" x="160" y="295" width="360" height="12" rx="6" />
  <rect class="soft" x="780" y="220" width="200" height="12" rx="6" />
  <rect class="soft" x="780" y="245" width="300" height="12" rx="6" />
  <rect class="soft" x="780" y="540" width="440" height="150" rx="18" />
</svg>